{"title":"Shrek 2 2004 DVDrip Dutch Klam","uid":6554663,"size":1278918613,"categoryP":"video","categoryS":"movies","magnet":"?xt=urn:btih:2c92e595a3efa01bace6fa40189834a8d68f070e&amp;dn=Shrek+2+2004+DVDrip+Dutch+Klam&amp;tr=udp%3A%2F%2Ftracker.openbittorrent.com%3A80&amp;tr=udp%3A%2F%2Fopen.demonii.com%3A1337&amp;tr=udp%3A%2F%2Ftracker.coppersurfer.tk%3A6969&amp;tr=udp%3A%2F%2Fexodus.desync.com%3A6969","seeders":2,"leechers":1,"uploader":"Klambake","files":-1,"time":1311237846,"description":"Dutch spoken, Nederlands gesproken.\n\nMet bekende Nederlandse stemmen,\nNa teruggekeerd te zijn van hun huwelijksreis horen Shrek en Fiona dat haar ouders van het huwelijk gehoord hebben. Ze willen niets liever dan haar ware liefde te ontmoeten in hun koninkrijk Far Far Away. Ze zijn zich echter niet bewust van de veranderingen die hun dochter onlangs ondergaan heeft. En dat hun nieuwe schoonzoon een 350 kilo zware Ogre met een slechte hygiÃƒÂ«ne is en een pratende ezel als vriend heeft.\n\nPrincess Fiona's parents invite her and Shrek to dinner to celebrate her marriage. If only they knew the newlyweds were both ogres. \n\n------------------ Dutch Friends ------------------\nYou can find my Friends at: http://www.Film-Test.nl \n------ They got my dutchs subs ---- and more ------\n\nGeneral:\n\nComplete name                    : Shrek 2\\Shrek 2.avi\nFormat                           : AVI\nFormat/Info                      : Audio Video Interleave\nFile size                        : 1.19 GiB\nDuration                         : 1h 28mn\nOverall bit rate                 : 1 923 Kbps\n\nVideo:\n\nFormat                           : MPEG-4 Visual\nFormat profile                   : Simple@L3\nFormat settings, BVOP            : No\nFormat settings, QPel            : No\nFormat settings, GMC             : No warppoints\nFormat settings, Matrix          : Default (H.263)\nCodec ID                         : XVID\nCodec ID/Hint                    : XviD\nDuration                         : 1h 28mn\nBit rate                         : 1 528 Kbps\nWidth                            : 652 pixels\nHeight                           : 352 pixels\nDisplay aspect ratio             : 1.852\nFrame rate                       : 25.000 fps\nColor space                      : YUV\nChroma subsampling               : 4:2:0\nBit depth                        : 8 bits\nScan type                        : Progressive\nBits/(Pixel*Frame)               : 0.266\nStream size                      : 969 MiB (79%)\nWriting library                  : XviD 1.1.2 (UTC 2006-11-01)\n\nAudio:\n\nFormat                           : AC-3\nFormat/Info                      : Audio Coding 3\nMode extension                   : CM (complete main)\nCodec ID                         : 2000\nDuration                         : 1h 28mn\nBit rate mode                    : Constant\nBit rate                         : 384 Kbps\nChannel(s)                       : 6 channels\nChannel positions                : Front: L C R, Side: L R, LFE\nSampling rate                    : 48.0 KHz\nBit depth                        : 16 bits\nStream size                      : 243 MiB (20%)\nAlignment                        : Aligned on interleaves\nInterleave, duration             : 32 ms (0.80 video frame)\nInterleave, preload duration     : 64 ms\n\n\n","torrent":{"xt":"urn:btih:2c92e595a3efa01bace6fa40189834a8d68f070e","amp;dn":"Shrek+2+2004+DVDrip+Dutch+Klam","amp;tr":["udp%3A%2F%2Ftracker.openbittorrent.com%3A80","udp%3A%2F%2Fopen.demonii.com%3A1337","udp%3A%2F%2Ftracker.coppersurfer.tk%3A6969","udp%3A%2F%2Fexodus.desync.com%3A6969"],"infoHash":"2c92e595a3efa01bace6fa40189834a8d68f070e","infoHashBuffer":{"type":"Buffer","data":[44,146,229,149,163,239,160,27,172,230,250,64,24,152,52,168,214,143,7,14]},"announce":[],"urlList":[]}}